{
  "source": "C:\\Users\\Peter\\Desktop\\stuff\\MIUN\\quantitative_research\\video_compression\\videos\\BVI-HD\\BVI-HD_CDVL_videos\\ORIG\\Diver_1920x1080_30fps.mp4",
  "output": "C:\\Users\\Peter\\Desktop\\stuff\\MIUN\\quantitative_research\\video_compression\\compressed_videos\\BVI-HD\\hevc\\1\\Diver_1920x1080_30fps_hevc.mp4",
  "codec": "hevc",
  "ok": "Input #0, mov,mp4,m4a,3gp,3g2,mj2, from 'C:\\Users\\Peter\\Desktop\\stuff\\MIUN\\quantitative_research\\video_compression\\videos\\BVI-HD\\BVI-HD_CDVL_videos\\ORIG\\Diver_1920x1080_30fps.mp4':\n  Metadata:\n    major_brand     : isom\n    minor_version   : 512\n    compatible_brands: isomiso2avc1mp41\n    encoder         : Lavf54.28.101\n  Duration: 00:00:05.00, start: 0.000000, bitrate: 196798 kb/s\n  Stream #0:0[0x1](und): Video: h264 (High 4:4:4 Predictive) (avc1 / 0x31637661), yuv420p(progressive), 1920x1080, 196794 kb/s, 30 fps, 30 tbr, 30 tbn (default)\n    Metadata:\n      handler_name    : VideoHandler\n      vendor_id       : [0][0][0][0]\n[out#0/mp4 @ 000002a8dea9ad00] Codec AVOption b:a (set bitrate (in bits/s)) has not been used for any stream. The most likely reason is either wrong type (e.g. a video option with no video streams) or that it is a private option of some decoder which was not actually used for any stream.\nStream mapping:\n  Stream #0:0 -> #0:0 (h264 (native) -> hevc (libx265))\nPress [q] to stop, [?] for help\n[libx265 @ 000002a8dea9fd80] Unknown option: \"aq-mode.\nx265 [info]: HEVC encoder version 4.1+190-8f11c33ac\nx265 [info]: build info [Windows][GCC 15.1.0][64 bit] 10bit\nx265 [info]: using cpu capabilities: MMX2 SSE2Fast LZCNT SSSE3 SSE4.2 AVX FMA3 BMI2 AVX2\nx265 [info]: Main 10 profile, Level-4 (Main tier)\nx265 [info]: Thread pool created using 12 threads\nx265 [info]: Slices                              : 1\nx265 [info]: frame threads / pool features       : 3 / wpp(17 rows)\nx265 [info]: Coding QT: max CU size, min CU size : 64 / 8\nx265 [info]: Residual QT: max TU size, max depth : 32 / 1 inter / 1 intra\nx265 [info]: ME / range / subpel / merge         : star / 57 / 3 / 3\nx265 [info]: Keyframe min / max / scenecut / bias  : 25 / 250 / 40 / 5.00 \nx265 [info]: Lookahead / bframes / badapt        : 25 / 4 / 2\nx265 [info]: b-pyramid / weightp / weightb       : 1 / 1 / 0\nx265 [info]: References / ref-limit  cu / depth  : 4 / on / on\nx265 [info]: AQ: mode / str / qg-size / cu-tree  : 2 / 1.0 / 32 / 1\nx265 [info]: Rate Control / qCompress            : ABR-1000 kbps / 0.60\nx265 [info]: VBV/HRD buffer / max-rate / init    : 1000 / 1000 / 0.750\nx265 [info]: tools: rect limit-modes rd=4 psy-rd=2.00 rdoq=2 psy-rdoq=1.00\nx265 [info]: tools: rskip mode=1 signhide tmvp strong-intra-smoothing lslices=4\nx265 [info]: tools: deblock sao dhdr10-info\nOutput #0, mp4, to 'C:\\Users\\Peter\\Desktop\\stuff\\MIUN\\quantitative_research\\video_compression\\compressed_videos\\BVI-HD\\hevc\\1\\Diver_1920x1080_30fps_hevc.mp4':\n  Metadata:\n    major_brand     : isom\n    minor_version   : 512\n    compatible_brands: isomiso2avc1mp41\n    encoder         : Lavf62.3.100\n  Stream #0:0(und): Video: hevc (hev1 / 0x31766568), yuv420p10le(tv, progressive), 1920x1080, q=2-31, 1000 kb/s, 30 fps, 15360 tbn (default)\n    Metadata:\n      encoder         : Lavc62.11.100 libx265\n      handler_name    : VideoHandler\n      vendor_id       : [0][0][0][0]\n    Side data:\n      cpb: bitrate max/min/avg: 1000000/0/1000000 buffer size: 1000000 vbv_delay: N/A\nframe=    0 fps=0.0 q=0.0 size=       0KiB time=N/A bitrate=N/A speed=N/A elapsed=0:00:00.52    \nframe=    0 fps=0.0 q=0.0 size=       0KiB time=N/A bitrate=N/A speed=N/A elapsed=0:00:01.08    \nframe=    0 fps=0.0 q=0.0 size=       0KiB time=N/A bitrate=N/A speed=N/A elapsed=0:00:01.62    \nframe=    0 fps=0.0 q=0.0 size=       0KiB time=N/A bitrate=N/A speed=N/A elapsed=0:00:02.16    \nframe=    0 fps=0.0 q=0.0 size=       0KiB time=N/A bitrate=N/A speed=N/A elapsed=0:00:02.68    \nframe=    0 fps=0.0 q=0.0 size=       0KiB time=N/A bitrate=N/A speed=N/A elapsed=0:00:03.20    \nframe=    0 fps=0.0 q=0.0 size=       0KiB time=N/A bitrate=N/A speed=N/A elapsed=0:00:03.73    \nframe=    0 fps=0.0 q=0.0 size=       0KiB time=N/A bitrate=N/A speed=N/A elapsed=0:00:04.26    \nframe=    0 fps=0.0 q=0.0 size=       0KiB time=N/A bitrate=N/A speed=N/A elapsed=0:00:04.78    \nframe=    0 fps=0.0 q=0.0 size=       0KiB time=N/A bitrate=N/A speed=N/A elapsed=0:00:05.30    \nframe=    0 fps=0.0 q=0.0 size=       0KiB time=N/A bitrate=N/A speed=N/A elapsed=0:00:05.82    \nframe=    0 fps=0.0 q=0.0 size=       0KiB time=N/A bitrate=N/A speed=N/A elapsed=0:00:06.34    \nframe=    1 fps=0.1 q=37.1 size=       0KiB time=-00:00:00.03 bitrate=N/A speed=N/A elapsed=0:00:06.87    \nframe=    2 fps=0.3 q=40.0 size=       0KiB time=00:00:00.00 bitrate=N/A speed=   0x elapsed=0:00:07.41    \nframe=    3 fps=0.4 q=43.1 size=       0KiB time=00:00:00.03 bitrate=  10.6kbits/s speed=0.00419x elapsed=0:00:07.95    \nframe=    4 fps=0.5 q=43.7 size=       0KiB time=00:00:00.06 bitrate=   5.3kbits/s speed=0.00788x elapsed=0:00:08.46    \nframe=    5 fps=0.6 q=41.4 size=       0KiB time=00:00:00.10 bitrate=   3.5kbits/s speed=0.0111x elapsed=0:00:08.97    \nframe=    5 fps=0.5 q=41.4 size=       0KiB time=00:00:00.10 bitrate=   3.5kbits/s speed=0.0105x elapsed=0:00:09.51    \nframe=    6 fps=0.6 q=40.2 size=       0KiB time=00:00:00.13 bitrate=   2.6kbits/s speed=0.0133x elapsed=0:00:10.02    \nframe=    7 fps=0.7 q=32.3 size=       0KiB time=00:00:00.16 bitrate=   2.1kbits/s speed=0.0158x elapsed=0:00:10.54    \nframe=    8 fps=0.7 q=34.6 size=       0KiB time=00:00:00.20 bitrate=   1.8kbits/s speed=0.0181x elapsed=0:00:11.06    \nframe=    8 fps=0.7 q=34.6 size=       0KiB time=00:00:00.20 bitrate=   1.8kbits/s speed=0.0173x elapsed=0:00:11.58    \nframe=    9 fps=0.7 q=34.2 size=       0KiB time=00:00:00.23 bitrate=   1.5kbits/s speed=0.0192x elapsed=0:00:12.13    \nframe=    9 fps=0.7 q=34.2 size=       0KiB time=00:00:00.23 bitrate=   1.5kbits/s speed=0.0184x elapsed=0:00:12.65    \nframe=    9 fps=0.7 q=34.2 size=       0KiB time=00:00:00.23 bitrate=   1.5kbits/s speed=0.0177x elapsed=0:00:13.17    \nframe=    9 fps=0.7 q=34.2 size=       0KiB time=00:00:00.23 bitrate=   1.5kbits/s speed=0.0171x elapsed=0:00:13.68    \nframe=    9 fps=0.6 q=34.2 size=       0KiB time=00:00:00.23 bitrate=   1.5kbits/s speed=0.0164x elapsed=0:00:14.21    \nframe=   10 fps=0.7 q=33.4 size=       0KiB time=00:00:00.26 bitrate=   1.3kbits/s speed=0.0181x elapsed=0:00:14.74    \nframe=   10 fps=0.7 q=33.4 size=       0KiB time=00:00:00.26 bitrate=   1.3kbits/s speed=0.0175x elapsed=0:00:15.27    \nframe=   11 fps=0.7 q=33.1 size=       0KiB time=00:00:00.30 bitrate=   1.2kbits/s speed=0.019x elapsed=0:00:15.78    \nframe=   11 fps=0.7 q=33.1 size=       0KiB time=00:00:00.30 bitrate=   1.2kbits/s speed=0.0184x elapsed=0:00:16.30    \nframe=   12 fps=0.7 q=30.0 size=       0KiB time=00:00:00.33 bitrate=   1.1kbits/s speed=0.0198x elapsed=0:00:16.82    \nframe=   12 fps=0.7 q=30.0 size=       0KiB time=00:00:00.33 bitrate=   1.1kbits/s speed=0.0192x elapsed=0:00:17.37    \nframe=   13 fps=0.7 q=33.8 size=       0KiB time=00:00:00.36 bitrate=   1.0kbits/s speed=0.0205x elapsed=0:00:17.89    \nframe=   14 fps=0.8 q=32.9 size=       0KiB time=00:00:00.40 bitrate=   0.9kbits/s speed=0.0217x elapsed=0:00:18.42    \nframe=   14 fps=0.7 q=32.9 size=       0KiB time=00:00:00.40 bitrate=   0.9kbits/s speed=0.0211x elapsed=0:00:18.94    \nframe=   14 fps=0.7 q=32.9 size=       0KiB time=00:00:00.40 bitrate=   0.9kbits/s speed=0.0205x elapsed=0:00:19.46    \nframe=   15 fps=0.8 q=32.9 size=       0KiB time=00:00:00.43 bitrate=   0.8kbits/s speed=0.0217x elapsed=0:00:19.98    \nframe=   15 fps=0.7 q=32.9 size=       0KiB time=00:00:00.43 bitrate=   0.8kbits/s speed=0.0211x elapsed=0:00:20.49    \nframe=   16 fps=0.8 q=33.0 size=       0KiB time=00:00:00.46 bitrate=   0.8kbits/s speed=0.0222x elapsed=0:00:21.00    \nframe=   16 fps=0.7 q=33.0 size=       0KiB time=00:00:00.46 bitrate=   0.8kbits/s speed=0.0217x elapsed=0:00:21.52    \nframe=   17 fps=0.8 q=28.9 size=       0KiB time=00:00:00.50 bitrate=   0.7kbits/s speed=0.0227x elapsed=0:00:22.06    \nframe=   17 fps=0.8 q=28.9 size=       0KiB time=00:00:00.50 bitrate=   0.7kbits/s speed=0.0222x elapsed=0:00:22.57    \nframe=   17 fps=0.7 q=28.9 size=       0KiB time=00:00:00.50 bitrate=   0.7kbits/s speed=0.0217x elapsed=0:00:23.09    \nframe=   18 fps=0.8 q=32.0 size=       0KiB time=00:00:00.53 bitrate=   0.7kbits/s speed=0.0226x elapsed=0:00:23.62    \nframe=   19 fps=0.8 q=32.2 size=       0KiB time=00:00:00.56 bitrate=   0.6kbits/s speed=0.0235x elapsed=0:00:24.14    \nframe=   19 fps=0.8 q=32.2 size=       0KiB time=00:00:00.56 bitrate=   0.6kbits/s speed=0.023x elapsed=0:00:24.65    \nframe=   19 fps=0.8 q=32.2 size=       0KiB time=00:00:00.56 bitrate=   0.6kbits/s speed=0.0225x elapsed=0:00:25.16    \nframe=   19 fps=0.7 q=32.2 size=       0KiB time=00:00:00.56 bitrate=   0.6kbits/s speed=0.022x elapsed=0:00:25.70    \nframe=   20 fps=0.8 q=32.3 size=       0KiB time=00:00:00.60 bitrate=   0.6kbits/s speed=0.0229x elapsed=0:00:26.21    \nframe=   21 fps=0.8 q=32.0 size=       0KiB time=00:00:00.63 bitrate=   0.6kbits/s speed=0.0237x elapsed=0:00:26.73    \nframe=   22 fps=0.8 q=28.6 size=       0KiB time=00:00:00.66 bitrate=   0.5kbits/s speed=0.0245x elapsed=0:00:27.25    \nframe=   22 fps=0.8 q=28.6 size=       0KiB time=00:00:00.66 bitrate=   0.5kbits/s speed=0.024x elapsed=0:00:27.77    \nframe=   23 fps=0.8 q=31.4 size=       0KiB time=00:00:00.70 bitrate=   0.5kbits/s speed=0.0247x elapsed=0:00:28.30    \nframe=   23 fps=0.8 q=31.4 size=       0KiB time=00:00:00.70 bitrate=   0.5kbits/s speed=0.0243x elapsed=0:00:28.80    \nframe=   24 fps=0.8 q=31.8 size=       0KiB time=00:00:00.73 bitrate=   0.5kbits/s speed=0.025x elapsed=0:00:29.32    \nframe=   24 fps=0.8 q=31.8 size=       0KiB time=00:00:00.73 bitrate=   0.5kbits/s speed=0.0246x elapsed=0:00:29.84    \nframe=   25 fps=0.8 q=31.6 size=       0KiB time=00:00:00.76 bitrate=   0.5kbits/s speed=0.0252x elapsed=0:00:30.40    \nframe=   25 fps=0.8 q=31.6 size=       0KiB time=00:00:00.76 bitrate=   0.5kbits/s speed=0.0247x elapsed=0:00:30.98    \nframe=   25 fps=0.8 q=31.6 size=       0KiB time=00:00:00.76 bitrate=   0.5kbits/s speed=0.0243x elapsed=0:00:31.56    \nframe=   25 fps=0.8 q=31.6 size=       0KiB time=00:00:00.76 bitrate=   0.5kbits/s speed=0.0238x elapsed=0:00:32.19    \nframe=   25 fps=0.8 q=31.6 size=       0KiB time=00:00:00.76 bitrate=   0.5kbits/s speed=0.0234x elapsed=0:00:32.75    \nframe=   25 fps=0.8 q=31.6 size=       0KiB time=00:00:00.76 bitrate=   0.5kbits/s speed=0.023x elapsed=0:00:33.29    \nframe=   25 fps=0.7 q=31.6 size=       0KiB time=00:00:00.76 bitrate=   0.5kbits/s speed=0.0226x elapsed=0:00:33.85    \nframe=   25 fps=0.7 q=31.6 size=       0KiB time=00:00:00.76 bitrate=   0.5kbits/s speed=0.0223x elapsed=0:00:34.45    \nframe=   26 fps=0.7 q=31.8 size=       0KiB time=00:00:00.80 bitrate=   0.4kbits/s speed=0.0229x elapsed=0:00:34.97    \nframe=   26 fps=0.7 q=31.8 size=       0KiB time=00:00:00.80 bitrate=   0.4kbits/s speed=0.0225x elapsed=0:00:35.53    \nframe=   26 fps=0.7 q=31.8 size=       0KiB time=00:00:00.80 bitrate=   0.4kbits/s speed=0.0221x elapsed=0:00:36.12    \nframe=   26 fps=0.7 q=31.8 size=       0KiB time=00:00:00.80 bitrate=   0.4kbits/s speed=0.0218x elapsed=0:00:36.66    \nframe=   27 fps=0.7 q=28.6 size=       0KiB time=00:00:00.83 bitrate=   0.4kbits/s speed=0.0224x elapsed=0:00:37.18    \nframe=   27 fps=0.7 q=28.6 size=       0KiB time=00:00:00.83 bitrate=   0.4kbits/s speed=0.0221x elapsed=0:00:37.72    \nframe=   28 fps=0.7 q=31.1 size=       0KiB time=00:00:00.86 bitrate=   0.4kbits/s speed=0.0227x elapsed=0:00:38.25    \nframe=   29 fps=0.7 q=32.5 size=       0KiB time=00:00:00.90 bitrate=   0.4kbits/s speed=0.0232x elapsed=0:00:38.76    \nframe=   29 fps=0.7 q=32.5 size=       0KiB time=00:00:00.90 bitrate=   0.4kbits/s speed=0.0229x elapsed=0:00:39.28    \nframe=   29 fps=0.7 q=32.5 size=       0KiB time=00:00:00.90 bitrate=   0.4kbits/s speed=0.0226x elapsed=0:00:39.80    \nframe=   30 fps=0.7 q=32.2 size=       0KiB time=00:00:00.93 bitrate=   0.4kbits/s speed=0.0231x elapsed=0:00:40.31    \nframe=   30 fps=0.7 q=32.2 size=       0KiB time=00:00:00.93 bitrate=   0.4kbits/s speed=0.0229x elapsed=0:00:40.83    \nframe=   31 fps=0.7 q=32.4 size=       0KiB time=00:00:00.96 bitrate=   0.4kbits/s speed=0.0234x elapsed=0:00:41.35    \nframe=   31 fps=0.7 q=32.4 size=       0KiB time=00:00:00.96 bitrate=   0.4kbits/s speed=0.0231x elapsed=0:00:41.89    \nframe=   31 fps=0.7 q=32.4 size=       0KiB time=00:00:00.96 bitrate=   0.4kbits/s speed=0.0228x elapsed=0:00:42.43    \nframe=   31 fps=0.7 q=32.4 size=       0KiB time=00:00:00.96 bitrate=   0.4kbits/s speed=0.0225x elapsed=0:00:42.95    \nframe=   32 fps=0.7 q=28.5 size=       0KiB time=00:00:01.00 bitrate=   0.4kbits/s speed=0.023x elapsed=0:00:43.47    \nframe=   33 fps=0.8 q=31.1 size=       0KiB time=00:00:01.03 bitrate=   0.3kbits/s speed=0.0235x elapsed=0:00:43.99    \nframe=   33 fps=0.7 q=31.1 size=       0KiB time=00:00:01.03 bitrate=   0.3kbits/s speed=0.0232x elapsed=0:00:44.52    \nframe=   34 fps=0.8 q=32.6 size=       0KiB time=00:00:01.06 bitrate=   0.3kbits/s speed=0.0237x elapsed=0:00:45.04    \nframe=   34 fps=0.7 q=32.6 size=       0KiB time=00:00:01.06 bitrate=   0.3kbits/s speed=0.0234x elapsed=0:00:45.56    \nframe=   34 fps=0.7 q=32.6 size=       0KiB time=00:00:01.06 bitrate=   0.3kbits/s speed=0.0231x elapsed=0:00:46.08    \nframe=   34 fps=0.7 q=32.6 size=       0KiB time=00:00:01.06 bitrate=   0.3kbits/s speed=0.0229x elapsed=0:00:46.58    \nframe=   35 fps=0.7 q=32.0 size=       0KiB time=00:00:01.10 bitrate=   0.3kbits/s speed=0.0233x elapsed=0:00:47.11    \nframe=   35 fps=0.7 q=32.0 size=       0KiB time=00:00:01.10 bitrate=   0.3kbits/s speed=0.0231x elapsed=0:00:47.65    \nframe=   35 fps=0.7 q=32.0 size=       0KiB time=00:00:01.10 bitrate=   0.3kbits/s speed=0.0228x elapsed=0:00:48.24    \nframe=   35 fps=0.7 q=32.0 size=       0KiB time=00:00:01.10 bitrate=   0.3kbits/s speed=0.0225x elapsed=0:00:48.80    \nframe=   36 fps=0.7 q=28.4 size=       0KiB time=00:00:01.13 bitrate=   0.3kbits/s speed=0.023x elapsed=0:00:49.36    \nframe=   37 fps=0.7 q=29.6 size=       0KiB time=00:00:01.16 bitrate=   0.3kbits/s speed=0.0234x elapsed=0:00:49.92    \nframe=   38 fps=0.8 q=31.7 size=       0KiB time=00:00:01.20 bitrate=   0.3kbits/s speed=0.0238x elapsed=0:00:50.46    \nframe=   38 fps=0.7 q=31.7 size=       0KiB time=00:00:01.20 bitrate=   0.3kbits/s speed=0.0235x elapsed=0:00:51.00    \nframe=   38 fps=0.7 q=31.7 size=       0KiB time=00:00:01.20 bitrate=   0.3kbits/s speed=0.0233x elapsed=0:00:51.54    \nframe=   38 fps=0.7 q=31.7 size=       0KiB time=00:00:01.20 bitrate=   0.3kbits/s speed=0.023x elapsed=0:00:52.08    \nframe=   38 fps=0.7 q=31.7 size=       0KiB time=00:00:01.20 bitrate=   0.3kbits/s speed=0.0228x elapsed=0:00:52.63    \nframe=   38 fps=0.7 q=31.7 size=       0KiB time=00:00:01.20 bitrate=   0.3kbits/s speed=0.0226x elapsed=0:00:53.19    \nframe=   38 fps=0.7 q=31.7 size=       0KiB time=00:00:01.20 bitrate=   0.3kbits/s speed=0.0223x elapsed=0:00:53.71    \nframe=   38 fps=0.7 q=31.7 size=       0KiB time=00:00:01.20 bitrate=   0.3kbits/s speed=0.0221x elapsed=0:00:54.25    \nframe=   38 fps=0.7 q=31.7 size=       0KiB time=00:00:01.20 bitrate=   0.3kbits/s speed=0.0219x elapsed=0:00:54.80    \nframe=   38 fps=0.7 q=31.7 size=       0KiB time=00:00:01.20 bitrate=   0.3kbits/s speed=0.0217x elapsed=0:00:55.39    \nframe=   39 fps=0.7 q=31.7 size=       0KiB time=00:00:01.23 bitrate=   0.3kbits/s speed=0.022x elapsed=0:00:55.94    \nframe=   39 fps=0.7 q=31.7 size=       0KiB time=00:00:01.23 bitrate=   0.3kbits/s speed=0.0218x elapsed=0:00:56.49    \nframe=   40 fps=0.7 q=32.1 size=       0KiB time=00:00:01.26 bitrate=   0.3kbits/s speed=0.0222x elapsed=0:00:57.02    \nframe=   40 fps=0.7 q=32.1 size=       0KiB time=00:00:01.26 bitrate=   0.3kbits/s speed=0.022x elapsed=0:00:57.57    \nframe=   40 fps=0.7 q=32.1 size=       0KiB time=00:00:01.26 bitrate=   0.3kbits/s speed=0.0218x elapsed=0:00:58.14    \nframe=   40 fps=0.7 q=32.1 size=       0KiB time=00:00:01.26 bitrate=   0.3kbits/s speed=0.0216x elapsed=0:00:58.65    \nframe=   40 fps=0.7 q=32.1 size=       0KiB time=00:00:01.26 bitrate=   0.3kbits/s speed=0.0214x elapsed=0:00:59.16    \nframe=   40 fps=0.7 q=32.1 size=       0KiB time=00:00:01.26 bitrate=   0.3kbits/s speed=0.0212x elapsed=0:00:59.72    \nframe=   40 fps=0.7 q=32.1 size=       0KiB time=00:00:01.26 bitrate=   0.3kbits/s speed=0.021x elapsed=0:01:00.28    \nframe=   41 fps=0.7 q=29.0 size=       0KiB time=00:00:01.30 bitrate=   0.3kbits/s speed=0.0214x elapsed=0:01:00.84    \nframe=   41 fps=0.7 q=29.0 size=       0KiB time=00:00:01.30 bitrate=   0.3kbits/s speed=0.0212x elapsed=0:01:01.40    \nframe=   41 fps=0.7 q=29.0 size=       0KiB time=00:00:01.30 bitrate=   0.3kbits/s speed=0.021x elapsed=0:01:01.94    \nframe=   41 fps=0.7 q=29.0 size=       0KiB time=00:00:01.30 bitrate=   0.3kbits/s speed=0.0208x elapsed=0:01:02.49    \nframe=   41 fps=0.7 q=29.0 size=       0KiB time=00:00:01.30 bitrate=   0.3kbits/s speed=0.0206x elapsed=0:01:03.06    \nframe=   42 fps=0.7 q=29.3 size=       0KiB time=00:00:01.33 bitrate=   0.3kbits/s speed=0.021x elapsed=0:01:03.58    \nframe=   42 fps=0.7 q=29.3 size=       0KiB time=00:00:01.33 bitrate=   0.3kbits/s speed=0.0208x elapsed=0:01:04.12    \nframe=   42 fps=0.6 q=29.3 size=       0KiB time=00:00:01.33 bitrate=   0.3kbits/s speed=0.0206x elapsed=0:01:04.66    \nframe=   43 fps=0.7 q=32.4 size=       0KiB time=00:00:01.36 bitrate=   0.3kbits/s speed=0.021x elapsed=0:01:05.18    \nframe=   43 fps=0.7 q=32.4 size=       0KiB time=00:00:01.36 bitrate=   0.3kbits/s speed=0.0208x elapsed=0:01:05.74    \nframe=   43 fps=0.6 q=32.4 size=       0KiB time=00:00:01.36 bitrate=   0.3kbits/s speed=0.0206x elapsed=0:01:06.28    \nframe=   43 fps=0.6 q=32.4 size=       0KiB time=00:00:01.36 bitrate=   0.3kbits/s speed=0.0204x elapsed=0:01:06.85    \nframe=   43 fps=0.6 q=32.4 size=       0KiB time=00:00:01.36 bitrate=   0.3kbits/s speed=0.0203x elapsed=0:01:07.42    \nframe=   43 fps=0.6 q=32.4 size=       0KiB time=00:00:01.36 bitrate=   0.3kbits/s speed=0.0201x elapsed=0:01:08.00    \nframe=   43 fps=0.6 q=32.4 size=       0KiB time=00:00:01.36 bitrate=   0.3kbits/s speed=0.0199x elapsed=0:01:08.59    \nframe=   43 fps=0.6 q=32.4 size=       0KiB time=00:00:01.36 bitrate=   0.3kbits/s speed=0.0198x elapsed=0:01:09.15    \nframe=   43 fps=0.6 q=32.4 size=       0KiB time=00:00:01.36 bitrate=   0.3kbits/s speed=0.0196x elapsed=0:01:09.76    \nframe=   43 fps=0.6 q=32.4 size=       0KiB time=00:00:01.36 bitrate=   0.3kbits/s speed=0.0194x elapsed=0:01:10.33    \nframe=   43 fps=0.6 q=32.4 size=       0KiB time=00:00:01.36 bitrate=   0.3kbits/s speed=0.0193x elapsed=0:01:10.86    \nframe=   44 fps=0.6 q=32.2 size=       0KiB time=00:00:01.40 bitrate=   0.3kbits/s speed=0.0196x elapsed=0:01:11.38    \nframe=   44 fps=0.6 q=32.2 size=       0KiB time=00:00:01.40 bitrate=   0.3kbits/s speed=0.0195x elapsed=0:01:11.91    \nframe=   44 fps=0.6 q=32.2 size=       0KiB time=00:00:01.40 bitrate=   0.3kbits/s speed=0.0193x elapsed=0:01:12.46    \nframe=   44 fps=0.6 q=32.2 size=       0KiB time=00:00:01.40 bitrate=   0.3kbits/s speed=0.0192x elapsed=0:01:12.99    \nframe=   44 fps=0.6 q=32.2 size=       0KiB time=00:00:01.40 bitrate=   0.3kbits/s speed=0.019x elapsed=0:01:13.54    \nframe=   45 fps=0.6 q=32.7 size=       0KiB time=00:00:01.43 bitrate=   0.2kbits/s speed=0.0194x elapsed=0:01:14.05    \nframe=   45 fps=0.6 q=32.7 size=       0KiB time=00:00:01.43 bitrate=   0.2kbits/s speed=0.0192x elapsed=0:01:14.57    \nframe=   46 fps=0.6 q=29.4 size=       0KiB time=00:00:01.46 bitrate=   0.2kbits/s speed=0.0195x elapsed=0:01:15.09    \nframe=   46 fps=0.6 q=29.4 size=       0KiB time=00:00:01.46 bitrate=   0.2kbits/s speed=0.0194x elapsed=0:01:15.61    \nframe=   46 fps=0.6 q=29.4 size=       0KiB time=00:00:01.46 bitrate=   0.2kbits/s speed=0.0193x elapsed=0:01:16.14    \nframe=   47 fps=0.6 q=31.7 size=       0KiB time=00:00:01.50 bitrate=   0.2kbits/s speed=0.0196x elapsed=0:01:16.66    \nframe=   47 fps=0.6 q=31.7 size=       0KiB time=00:00:01.50 bitrate=   0.2kbits/s speed=0.0194x elapsed=0:01:17.16    \nframe=   48 fps=0.6 q=33.4 size=       0KiB time=00:00:01.53 bitrate=   0.2kbits/s speed=0.0197x elapsed=0:01:17.68    \nframe=   48 fps=0.6 q=33.4 size=       0KiB time=00:00:01.53 bitrate=   0.2kbits/s speed=0.0196x elapsed=0:01:18.20    \nframe=   48 fps=0.6 q=33.4 size=       0KiB time=00:00:01.53 bitrate=   0.2kbits/s speed=0.0195x elapsed=0:01:18.73    \nframe=   49 fps=0.6 q=33.4 size=       0KiB time=00:00:01.56 bitrate=   0.2kbits/s speed=0.0198x elapsed=0:01:19.27    \nframe=   49 fps=0.6 q=33.4 size=       0KiB time=00:00:01.56 bitrate=   0.2kbits/s speed=0.0196x elapsed=0:01:19.79    \nframe=   49 fps=0.6 q=33.4 size=       0KiB time=00:00:01.56 bitrate=   0.2kbits/s speed=0.0195x elapsed=0:01:20.33    \nframe=   49 fps=0.6 q=33.4 size=       0KiB time=00:00:01.56 bitrate=   0.2kbits/s speed=0.0194x elapsed=0:01:20.86    \nframe=   50 fps=0.6 q=33.5 size=       0KiB time=00:00:01.60 bitrate=   0.2kbits/s speed=0.0197x elapsed=0:01:21.38    \nframe=   50 fps=0.6 q=33.5 size=       0KiB time=00:00:01.60 bitrate=   0.2kbits/s speed=0.0195x elapsed=0:01:21.92    \nframe=   50 fps=0.6 q=33.5 size=       0KiB time=00:00:01.60 bitrate=   0.2kbits/s speed=0.0194x elapsed=0:01:22.43    \nframe=   51 fps=0.6 q=29.5 size=       0KiB time=00:00:01.63 bitrate=   0.2kbits/s speed=0.0197x elapsed=0:01:22.95    \nframe=   52 fps=0.6 q=31.4 size=       0KiB time=00:00:01.66 bitrate=   0.2kbits/s speed=0.02x elapsed=0:01:23.48    \nframe=   52 fps=0.6 q=31.4 size=       0KiB time=00:00:01.66 bitrate=   0.2kbits/s speed=0.0198x elapsed=0:01:23.99    \nframe=   52 fps=0.6 q=31.4 size=       0KiB time=00:00:01.66 bitrate=   0.2kbits/s speed=0.0197x elapsed=0:01:24.53    \nframe=   53 fps=0.6 q=33.5 size=       0KiB time=00:00:01.70 bitrate=   0.2kbits/s speed=0.02x elapsed=0:01:25.05    \nframe=   53 fps=0.6 q=33.5 size=       0KiB time=00:00:01.70 bitrate=   0.2kbits/s speed=0.0199x elapsed=0:01:25.57    \nframe=   54 fps=0.6 q=33.5 size=       0KiB time=00:00:01.73 bitrate=   0.2kbits/s speed=0.0201x elapsed=0:01:26.09    \nframe=   54 fps=0.6 q=33.5 size=       0KiB time=00:00:01.73 bitrate=   0.2kbits/s speed=0.02x elapsed=0:01:26.63    \nframe=   55 fps=0.6 q=29.9 size=       0KiB time=00:00:01.76 bitrate=   0.2kbits/s speed=0.0203x elapsed=0:01:27.14    \nframe=   55 fps=0.6 q=29.9 size=       0KiB time=00:00:01.76 bitrate=   0.2kbits/s speed=0.0202x elapsed=0:01:27.67    \nframe=   57 fps=0.6 q=33.0 size=       0KiB time=00:00:01.83 bitrate=   0.2kbits/s speed=0.0208x elapsed=0:01:28.18    \nframe=   57 fps=0.6 q=33.0 size=       0KiB time=00:00:01.83 bitrate=   0.2kbits/s speed=0.0207x elapsed=0:01:28.70    \nframe=   57 fps=0.6 q=33.0 size=       0KiB time=00:00:01.83 bitrate=   0.2kbits/s speed=0.0205x elapsed=0:01:29.24    \nframe=   58 fps=0.6 q=33.3 size=       0KiB time=00:00:01.86 bitrate=   0.2kbits/s speed=0.0208x elapsed=0:01:29.77    \nframe=   58 fps=0.6 q=33.3 size=       0KiB time=00:00:01.86 bitrate=   0.2kbits/s speed=0.0207x elapsed=0:01:30.30    \nframe=   58 fps=0.6 q=33.3 size=       0KiB time=00:00:01.86 bitrate=   0.2kbits/s speed=0.0205x elapsed=0:01:30.85    \nframe=   58 fps=0.6 q=33.3 size=       0KiB time=00:00:01.86 bitrate=   0.2kbits/s speed=0.0204x elapsed=0:01:31.38    \nframe=   59 fps=0.6 q=33.7 size=       0KiB time=00:00:01.90 bitrate=   0.2kbits/s speed=0.0207x elapsed=0:01:31.91    \nframe=   60 fps=0.6 q=29.9 size=       0KiB time=00:00:01.93 bitrate=   0.2kbits/s speed=0.0209x elapsed=0:01:32.42    \nframe=   61 fps=0.7 q=31.6 size=       0KiB time=00:00:01.96 bitrate=   0.2kbits/s speed=0.0212x elapsed=0:01:32.94    \nframe=   61 fps=0.7 q=31.6 size=       0KiB time=00:00:01.96 bitrate=   0.2kbits/s speed=0.021x elapsed=0:01:33.46    \nframe=   62 fps=0.7 q=34.1 size=       0KiB time=00:00:02.00 bitrate=   0.2kbits/s speed=0.0213x elapsed=0:01:33.97    \nframe=   62 fps=0.7 q=34.1 size=       0KiB time=00:00:02.00 bitrate=   0.2kbits/s speed=0.0212x elapsed=0:01:34.49    \nframe=   63 fps=0.7 q=34.1 size=       0KiB time=00:00:02.03 bitrate=   0.2kbits/s speed=0.0214x elapsed=0:01:35.01    \nframe=   63 fps=0.7 q=34.1 size=       0KiB time=00:00:02.03 bitrate=   0.2kbits/s speed=0.0213x elapsed=0:01:35.54    \nframe=   64 fps=0.7 q=34.2 size=     256KiB time=00:00:02.06 bitrate=1014.9kbits/s speed=0.0215x elapsed=0:01:36.07    \nframe=   64 fps=0.7 q=34.2 size=     256KiB time=00:00:02.06 bitrate=1014.9kbits/s speed=0.0214x elapsed=0:01:36.58    \nframe=   64 fps=0.7 q=34.2 size=     256KiB time=00:00:02.06 bitrate=1014.9kbits/s speed=0.0213x elapsed=0:01:37.10    \nframe=   65 fps=0.7 q=29.8 size=     256KiB time=00:00:02.10 bitrate= 998.8kbits/s speed=0.0215x elapsed=0:01:37.63    \nframe=   65 fps=0.7 q=29.8 size=     256KiB time=00:00:02.10 bitrate= 998.8kbits/s speed=0.0214x elapsed=0:01:38.17    \nframe=   65 fps=0.7 q=29.8 size=     256KiB time=00:00:02.10 bitrate= 998.8kbits/s speed=0.0213x elapsed=0:01:38.69    \nframe=   66 fps=0.7 q=31.6 size=     256KiB time=00:00:02.13 bitrate= 983.2kbits/s speed=0.0215x elapsed=0:01:39.21    \nframe=   67 fps=0.7 q=34.0 size=     256KiB time=00:00:02.16 bitrate= 968.1kbits/s speed=0.0217x elapsed=0:01:39.75    \nframe=   67 fps=0.7 q=34.0 size=     256KiB time=00:00:02.16 bitrate= 968.1kbits/s speed=0.0216x elapsed=0:01:40.27    \nframe=   68 fps=0.7 q=34.4 size=     256KiB time=00:00:02.20 bitrate= 953.4kbits/s speed=0.0218x elapsed=0:01:40.79    \nframe=   68 fps=0.7 q=34.4 size=     256KiB time=00:00:02.20 bitrate= 953.4kbits/s speed=0.0217x elapsed=0:01:41.31    \nframe=   68 fps=0.7 q=34.4 size=     256KiB time=00:00:02.20 bitrate= 953.4kbits/s speed=0.0216x elapsed=0:01:41.83    \nframe=   69 fps=0.7 q=34.8 size=     256KiB time=00:00:02.23 bitrate= 939.2kbits/s speed=0.0218x elapsed=0:01:42.35    \nframe=   69 fps=0.7 q=34.8 size=     256KiB time=00:00:02.23 bitrate= 939.2kbits/s speed=0.0217x elapsed=0:01:42.86    \nframe=   70 fps=0.7 q=30.0 size=     256KiB time=00:00:02.26 bitrate= 925.4kbits/s speed=0.0219x elapsed=0:01:43.39    \nframe=   70 fps=0.7 q=30.0 size=     256KiB time=00:00:02.26 bitrate= 925.4kbits/s speed=0.0218x elapsed=0:01:43.91    \nframe=   70 fps=0.7 q=30.0 size=     256KiB time=00:00:02.26 bitrate= 925.4kbits/s speed=0.0217x elapsed=0:01:44.46    \nframe=   71 fps=0.7 q=33.7 size=     256KiB time=00:00:02.30 bitrate= 912.0kbits/s speed=0.0219x elapsed=0:01:44.97    \nframe=   72 fps=0.7 q=34.5 size=     256KiB time=00:00:02.33 bitrate= 898.9kbits/s speed=0.0221x elapsed=0:01:45.49    \nframe=   73 fps=0.7 q=35.0 size=     256KiB time=00:00:02.36 bitrate= 886.3kbits/s speed=0.0223x elapsed=0:01:46.02    \nframe=   73 fps=0.7 q=35.0 size=     256KiB time=00:00:02.36 bitrate= 886.3kbits/s speed=0.0222x elapsed=0:01:46.54    \nframe=   73 fps=0.7 q=35.0 size=     256KiB time=00:00:02.36 bitrate= 886.3kbits/s speed=0.0221x elapsed=0:01:47.06    \nframe=   74 fps=0.7 q=35.1 size=     256KiB time=00:00:02.40 bitrate= 874.0kbits/s speed=0.0223x elapsed=0:01:47.57    \nframe=   74 fps=0.7 q=35.1 size=     256KiB time=00:00:02.40 bitrate= 874.0kbits/s speed=0.0222x elapsed=0:01:48.09    \nframe=   74 fps=0.7 q=35.1 size=     256KiB time=00:00:02.40 bitrate= 874.0kbits/s speed=0.0221x elapsed=0:01:48.63    \nframe=   74 fps=0.7 q=35.1 size=     256KiB time=00:00:02.40 bitrate= 874.0kbits/s speed=0.022x elapsed=0:01:49.15    \nframe=   75 fps=0.7 q=30.5 size=     256KiB time=00:00:02.43 bitrate= 862.0kbits/s speed=0.0222x elapsed=0:01:49.68    \nframe=   76 fps=0.7 q=33.7 size=     256KiB time=00:00:02.46 bitrate= 850.3kbits/s speed=0.0224x elapsed=0:01:50.20    \nframe=   77 fps=0.7 q=35.3 size=     256KiB time=00:00:02.50 bitrate= 839.0kbits/s speed=0.0226x elapsed=0:01:50.72    \nframe=   77 fps=0.7 q=35.3 size=     256KiB time=00:00:02.50 bitrate= 839.0kbits/s speed=0.0225x elapsed=0:01:51.26    \nframe=   78 fps=0.7 q=35.6 size=     256KiB time=00:00:02.53 bitrate= 828.0kbits/s speed=0.0227x elapsed=0:01:51.80    \nframe=   78 fps=0.7 q=35.6 size=     256KiB time=00:00:02.53 bitrate= 828.0kbits/s speed=0.0226x elapsed=0:01:52.32    \nframe=   78 fps=0.7 q=35.6 size=     256KiB time=00:00:02.53 bitrate= 828.0kbits/s speed=0.0224x elapsed=0:01:52.85    \nframe=   78 fps=0.7 q=35.6 size=     256KiB time=00:00:02.53 bitrate= 828.0kbits/s speed=0.0223x elapsed=0:01:53.39    \nframe=   79 fps=0.7 q=30.4 size=     256KiB time=00:00:02.56 bitrate= 817.2kbits/s speed=0.0225x elapsed=0:01:53.92    \nframe=   79 fps=0.7 q=30.4 size=     256KiB time=00:00:02.56 bitrate= 817.2kbits/s speed=0.0224x elapsed=0:01:54.42    \nframe=   80 fps=0.7 q=32.6 size=     256KiB time=00:00:02.60 bitrate= 806.7kbits/s speed=0.0226x elapsed=0:01:54.94    \nframe=   80 fps=0.7 q=32.6 size=     256KiB time=00:00:02.60 bitrate= 806.7kbits/s speed=0.0225x elapsed=0:01:55.47    \nframe=   80 fps=0.7 q=32.6 size=     256KiB time=00:00:02.60 bitrate= 806.7kbits/s speed=0.0224x elapsed=0:01:55.99    \nframe=   80 fps=0.7 q=32.6 size=     256KiB time=00:00:02.60 bitrate= 806.7kbits/s speed=0.0223x elapsed=0:01:56.52    \nframe=   80 fps=0.7 q=32.6 size=     256KiB time=00:00:02.60 bitrate= 806.7kbits/s speed=0.0222x elapsed=0:01:57.05    \nframe=   81 fps=0.7 q=34.7 size=     256KiB time=00:00:02.63 bitrate= 796.5kbits/s speed=0.0224x elapsed=0:01:57.57    \nframe=   81 fps=0.7 q=34.7 size=     256KiB time=00:00:02.63 bitrate= 796.5kbits/s speed=0.0223x elapsed=0:01:58.11    \nframe=   82 fps=0.7 q=35.1 size=     256KiB time=00:00:02.66 bitrate= 786.6kbits/s speed=0.0225x elapsed=0:01:58.65    \nframe=   82 fps=0.7 q=35.1 size=     256KiB time=00:00:02.66 bitrate= 786.6kbits/s speed=0.0224x elapsed=0:01:59.19    \nframe=   82 fps=0.7 q=35.1 size=     256KiB time=00:00:02.66 bitrate= 786.6kbits/s speed=0.0223x elapsed=0:01:59.76    \nframe=   83 fps=0.7 q=35.5 size=     256KiB time=00:00:02.70 bitrate= 776.9kbits/s speed=0.0224x elapsed=0:02:00.33    \nframe=   83 fps=0.7 q=35.5 size=     256KiB time=00:00:02.70 bitrate= 776.9kbits/s speed=0.0223x elapsed=0:02:00.91    \nframe=   83 fps=0.7 q=35.5 size=     256KiB time=00:00:02.70 bitrate= 776.9kbits/s speed=0.0222x elapsed=0:02:01.55    \nframe=   83 fps=0.7 q=35.5 size=     256KiB time=00:00:02.70 bitrate= 776.9kbits/s speed=0.0221x elapsed=0:02:02.17    \nframe=   83 fps=0.7 q=35.5 size=     256KiB time=00:00:02.70 bitrate= 776.9kbits/s speed=0.022x elapsed=0:02:02.72    \nframe=   83 fps=0.7 q=35.5 size=     256KiB time=00:00:02.70 bitrate= 776.9kbits/s speed=0.0219x elapsed=0:02:03.30    \nframe=   83 fps=0.7 q=35.5 size=     256KiB time=00:00:02.70 bitrate= 776.9kbits/s speed=0.0218x elapsed=0:02:03.88    \nframe=   83 fps=0.7 q=35.5 size=     256KiB time=00:00:02.70 bitrate= 776.9kbits/s speed=0.0217x elapsed=0:02:04.42    \nframe=   84 fps=0.7 q=30.7 size=     256KiB time=00:00:02.70 bitrate= 776.9kbits/s speed=0.0216x elapsed=0:02:04.97    \nframe=   84 fps=0.7 q=30.7 size=     256KiB time=00:00:02.73 bitrate= 767.4kbits/s speed=0.0218x elapsed=0:02:05.51    \nframe=   84 fps=0.7 q=30.7 size=     256KiB time=00:00:02.73 bitrate= 767.4kbits/s speed=0.0217x elapsed=0:02:06.06    \nframe=   84 fps=0.7 q=30.7 size=     256KiB time=00:00:02.73 bitrate= 767.4kbits/s speed=0.0216x elapsed=0:02:06.61    \nframe=   85 fps=0.7 q=33.5 size=     256KiB time=00:00:02.76 bitrate= 758.1kbits/s speed=0.0218x elapsed=0:02:07.20    \nframe=   85 fps=0.7 q=33.5 size=     256KiB time=00:00:02.76 bitrate= 758.1kbits/s speed=0.0217x elapsed=0:02:07.72    \nframe=   86 fps=0.7 q=35.5 size=     256KiB time=00:00:02.80 bitrate= 749.1kbits/s speed=0.0218x elapsed=0:02:08.22    \nframe=   87 fps=0.7 q=35.9 size=     256KiB time=00:00:02.83 bitrate= 740.3kbits/s speed=0.022x elapsed=0:02:08.74    \nframe=   87 fps=0.7 q=35.9 size=     256KiB time=00:00:02.83 bitrate= 740.3kbits/s speed=0.0219x elapsed=0:02:09.25    \nframe=   88 fps=0.7 q=35.7 size=     256KiB time=00:00:02.86 bitrate= 731.7kbits/s speed=0.0221x elapsed=0:02:09.78    \nframe=   88 fps=0.7 q=35.7 size=     256KiB time=00:00:02.86 bitrate= 731.7kbits/s speed=0.022x elapsed=0:02:10.32    \nframe=   88 fps=0.7 q=35.7 size=     256KiB time=00:00:02.86 bitrate= 731.7kbits/s speed=0.0219x elapsed=0:02:10.85    \nframe=   89 fps=0.7 q=30.5 size=     256KiB time=00:00:02.90 bitrate= 723.3kbits/s speed=0.0221x elapsed=0:02:11.37    \nframe=   90 fps=0.7 q=33.8 size=     256KiB time=00:00:02.93 bitrate= 715.1kbits/s speed=0.0222x elapsed=0:02:11.88    \nframe=   91 fps=0.7 q=35.1 size=     256KiB time=00:00:02.96 bitrate= 707.0kbits/s speed=0.0224x elapsed=0:02:12.40    \nframe=   92 fps=0.7 q=36.1 size=     256KiB time=00:00:03.00 bitrate= 699.2kbits/s speed=0.0226x elapsed=0:02:12.92    \nframe=   92 fps=0.7 q=36.1 size=     256KiB time=00:00:03.00 bitrate= 699.2kbits/s speed=0.0225x elapsed=0:02:13.44    \nframe=   92 fps=0.7 q=36.1 size=     256KiB time=00:00:03.00 bitrate= 699.2kbits/s speed=0.0224x elapsed=0:02:13.97    \nframe=   92 fps=0.7 q=36.1 size=     256KiB time=00:00:03.00 bitrate= 699.2kbits/s speed=0.0223x elapsed=0:02:14.51    \nframe=   93 fps=0.7 q=36.1 size=     256KiB time=00:00:03.03 bitrate= 691.5kbits/s speed=0.0225x elapsed=0:02:15.04    \nframe=   93 fps=0.7 q=36.1 size=     256KiB time=00:00:03.03 bitrate= 691.5kbits/s speed=0.0224x elapsed=0:02:15.56    \nframe=   94 fps=0.7 q=31.6 size=     256KiB time=00:00:03.06 bitrate= 684.0kbits/s speed=0.0225x elapsed=0:02:16.07    \nframe=   95 fps=0.7 q=34.5 size=     256KiB time=00:00:03.10 bitrate= 676.6kbits/s speed=0.0227x elapsed=0:02:16.58    \nframe=   95 fps=0.7 q=34.5 size=     256KiB time=00:00:03.10 bitrate= 676.6kbits/s speed=0.0226x elapsed=0:02:17.11    \nframe=   96 fps=0.7 q=36.6 size=     256KiB time=00:00:03.13 bitrate= 669.4kbits/s speed=0.0228x elapsed=0:02:17.65    \nframe=   96 fps=0.7 q=36.6 size=     256KiB time=00:00:03.13 bitrate= 669.4kbits/s speed=0.0227x elapsed=0:02:18.18    \nframe=   97 fps=0.7 q=36.7 size=     256KiB time=00:00:03.16 bitrate= 662.4kbits/s speed=0.0228x elapsed=0:02:18.69    \nframe=   97 fps=0.7 q=36.7 size=     256KiB time=00:00:03.16 bitrate= 662.4kbits/s speed=0.0227x elapsed=0:02:19.22    \nframe=   98 fps=0.7 q=31.3 size=     256KiB time=00:00:03.20 bitrate= 655.5kbits/s speed=0.0229x elapsed=0:02:19.72    \nframe=   99 fps=0.7 q=34.1 size=     256KiB time=00:00:03.23 bitrate= 648.7kbits/s speed=0.0231x elapsed=0:02:20.24    \nframe=   99 fps=0.7 q=34.1 size=     256KiB time=00:00:03.23 bitrate= 648.7kbits/s speed=0.023x elapsed=0:02:20.78    \nframe=  100 fps=0.7 q=36.5 size=     256KiB time=00:00:03.26 bitrate= 642.1kbits/s speed=0.0231x elapsed=0:02:21.30    \nframe=  100 fps=0.7 q=36.5 size=     256KiB time=00:00:03.26 bitrate= 642.1kbits/s speed=0.023x elapsed=0:02:21.84    \nframe=  101 fps=0.7 q=36.9 size=     256KiB time=00:00:03.30 bitrate= 635.6kbits/s speed=0.0232x elapsed=0:02:22.41    \nframe=  101 fps=0.7 q=36.9 size=     256KiB time=00:00:03.30 bitrate= 635.6kbits/s speed=0.0231x elapsed=0:02:22.93    \nframe=  101 fps=0.7 q=36.9 size=     256KiB time=00:00:03.30 bitrate= 635.6kbits/s speed=0.023x elapsed=0:02:23.44    \nframe=  102 fps=0.7 q=36.6 size=     256KiB time=00:00:03.33 bitrate= 629.3kbits/s speed=0.0232x elapsed=0:02:23.97    \nframe=  102 fps=0.7 q=36.6 size=     256KiB time=00:00:03.33 bitrate= 629.3kbits/s speed=0.0231x elapsed=0:02:24.50    \nframe=  102 fps=0.7 q=36.6 size=     256KiB time=00:00:03.33 bitrate= 629.3kbits/s speed=0.023x elapsed=0:02:25.07    \nframe=  102 fps=0.7 q=36.6 size=     256KiB time=00:00:03.33 bitrate= 629.3kbits/s speed=0.0229x elapsed=0:02:25.60    \nframe=  103 fps=0.7 q=32.2 size=     256KiB time=00:00:03.36 bitrate= 623.0kbits/s speed=0.023x elapsed=0:02:26.12    \nframe=  103 fps=0.7 q=32.2 size=     256KiB time=00:00:03.36 bitrate= 623.0kbits/s speed=0.023x elapsed=0:02:26.64    \nframe=  103 fps=0.7 q=32.2 size=     256KiB time=00:00:03.36 bitrate= 623.0kbits/s speed=0.0229x elapsed=0:02:27.16    \nframe=  104 fps=0.7 q=35.1 size=     256KiB time=00:00:03.40 bitrate= 616.9kbits/s speed=0.023x elapsed=0:02:27.69    \nframe=  104 fps=0.7 q=35.1 size=     256KiB time=00:00:03.40 bitrate= 616.9kbits/s speed=0.0229x elapsed=0:02:28.22    \nframe=  104 fps=0.7 q=35.1 size=     256KiB time=00:00:03.40 bitrate= 616.9kbits/s speed=0.0229x elapsed=0:02:28.75    \nframe=  105 fps=0.7 q=36.4 size=     256KiB time=00:00:03.43 bitrate= 610.9kbits/s speed=0.023x elapsed=0:02:29.28    \nframe=  105 fps=0.7 q=36.4 size=     256KiB time=00:00:03.43 bitrate= 610.9kbits/s speed=0.0229x elapsed=0:02:29.80    \nframe=  105 fps=0.7 q=36.4 size=     256KiB time=00:00:03.43 bitrate= 610.9kbits/s speed=0.0228x elapsed=0:02:30.32    \nframe=  105 fps=0.7 q=36.4 size=     256KiB time=00:00:03.43 bitrate= 610.9kbits/s speed=0.0228x elapsed=0:02:30.87    \nframe=  106 fps=0.7 q=37.2 size=     256KiB time=00:00:03.46 bitrate= 605.0kbits/s speed=0.0229x elapsed=0:02:31.41    \nframe=  106 fps=0.7 q=37.2 size=     256KiB time=00:00:03.46 bitrate= 605.0kbits/s speed=0.0228x elapsed=0:02:31.94    \nframe=  106 fps=0.7 q=37.2 size=     256KiB time=00:00:03.46 bitrate= 605.0kbits/s speed=0.0227x elapsed=0:02:32.46    \nframe=  107 fps=0.7 q=37.4 size=     256KiB time=00:00:03.50 bitrate= 599.3kbits/s speed=0.0229x elapsed=0:02:32.98    \nframe=  107 fps=0.7 q=37.4 size=     256KiB time=00:00:03.50 bitrate= 599.3kbits/s speed=0.0228x elapsed=0:02:33.51    \nframe=  108 fps=0.7 q=33.2 size=     256KiB time=00:00:03.53 bitrate= 593.6kbits/s speed=0.0229x elapsed=0:02:34.02    \nframe=  108 fps=0.7 q=33.2 size=     256KiB time=00:00:03.53 bitrate= 593.6kbits/s speed=0.0229x elapsed=0:02:34.55    \nframe=  108 fps=0.7 q=33.2 size=     256KiB time=00:00:03.53 bitrate= 593.6kbits/s speed=0.0228x elapsed=0:02:35.06    \nframe=  109 fps=0.7 q=35.5 size=     256KiB time=00:00:03.56 bitrate= 588.1kbits/s speed=0.0229x elapsed=0:02:35.59    \nframe=  109 fps=0.7 q=35.5 size=     256KiB time=00:00:03.56 bitrate= 588.1kbits/s speed=0.0228x elapsed=0:02:36.13    \nframe=  109 fps=0.7 q=35.5 size=     256KiB time=00:00:03.56 bitrate= 588.1kbits/s speed=0.0228x elapsed=0:02:36.66    \nframe=  110 fps=0.7 q=37.5 size=     256KiB time=00:00:03.60 bitrate= 582.6kbits/s speed=0.0229x elapsed=0:02:37.19    \nframe=  110 fps=0.7 q=37.5 size=     256KiB time=00:00:03.60 bitrate= 582.6kbits/s speed=0.0228x elapsed=0:02:37.71    \nframe=  110 fps=0.7 q=37.5 size=     256KiB time=00:00:03.60 bitrate= 582.6kbits/s speed=0.0227x elapsed=0:02:38.24    \nframe=  111 fps=0.7 q=38.1 size=     256KiB time=00:00:03.63 bitrate= 577.3kbits/s speed=0.0229x elapsed=0:02:38.78    \nframe=  111 fps=0.7 q=38.1 size=     256KiB time=00:00:03.63 bitrate= 577.3kbits/s speed=0.0228x elapsed=0:02:39.30    \nframe=  112 fps=0.7 q=38.4 size=     256KiB time=00:00:03.66 bitrate= 572.0kbits/s speed=0.0229x elapsed=0:02:39.82    \nframe=  112 fps=0.7 q=38.4 size=     256KiB time=00:00:03.66 bitrate= 572.0kbits/s speed=0.0229x elapsed=0:02:40.33    \nframe=  113 fps=0.7 q=34.7 size=     256KiB time=00:00:03.70 bitrate= 566.9kbits/s speed=0.023x elapsed=0:02:40.85    \nframe=  113 fps=0.7 q=34.7 size=     256KiB time=00:00:03.70 bitrate= 566.9kbits/s speed=0.0229x elapsed=0:02:41.37    \nframe=  114 fps=0.7 q=37.8 size=     256KiB time=00:00:03.73 bitrate= 561.8kbits/s speed=0.0231x elapsed=0:02:41.89    \nframe=  114 fps=0.7 q=37.8 size=     256KiB time=00:00:03.73 bitrate= 561.8kbits/s speed=0.023x elapsed=0:02:42.41    \nframe=  114 fps=0.7 q=37.8 size=     256KiB time=00:00:03.73 bitrate= 561.8kbits/s speed=0.0229x elapsed=0:02:42.94    \nframe=  115 fps=0.7 q=39.0 size=     256KiB time=00:00:03.76 bitrate= 556.9kbits/s speed=0.023x elapsed=0:02:43.44    \nframe=  116 fps=0.7 q=39.7 size=     256KiB time=00:00:03.80 bitrate= 552.0kbits/s speed=0.0232x elapsed=0:02:43.97    \nframe=  116 fps=0.7 q=39.7 size=     256KiB time=00:00:03.80 bitrate= 552.0kbits/s speed=0.0231x elapsed=0:02:44.49    \nframe=  116 fps=0.7 q=39.7 size=     256KiB time=00:00:03.80 bitrate= 552.0kbits/s speed=0.023x elapsed=0:02:45.03    \nframe=  117 fps=0.7 q=35.4 size=     256KiB time=00:00:03.83 bitrate= 547.2kbits/s speed=0.0232x elapsed=0:02:45.55    \nframe=  117 fps=0.7 q=35.4 size=     256KiB time=00:00:03.83 bitrate= 547.2kbits/s speed=0.0231x elapsed=0:02:46.07    \nframe=  118 fps=0.7 q=39.1 size=     256KiB time=00:00:03.86 bitrate= 542.5kbits/s speed=0.0232x elapsed=0:02:46.59    \nframe=  118 fps=0.7 q=39.1 size=     256KiB time=00:00:03.86 bitrate= 542.5kbits/s speed=0.0231x elapsed=0:02:47.10    \nframe=  118 fps=0.7 q=39.1 size=     256KiB time=00:00:03.86 bitrate= 542.5kbits/s speed=0.0231x elapsed=0:02:47.62    \nframe=  119 fps=0.7 q=40.1 size=     256KiB time=00:00:03.90 bitrate= 537.8kbits/s speed=0.0232x elapsed=0:02:48.14    \nframe=  119 fps=0.7 q=40.1 size=     256KiB time=00:00:03.90 bitrate= 537.8kbits/s speed=0.0231x elapsed=0:02:48.66    \nframe=  120 fps=0.7 q=35.9 size=     256KiB time=00:00:03.93 bitrate= 533.3kbits/s speed=0.0232x elapsed=0:02:49.18    \nframe=  120 fps=0.7 q=35.9 size=     256KiB time=00:00:03.93 bitrate= 533.3kbits/s speed=0.0232x elapsed=0:02:49.69    \nframe=  120 fps=0.7 q=35.9 size=     256KiB time=00:00:03.93 bitrate= 533.3kbits/s speed=0.0231x elapsed=0:02:50.21    \nframe=  120 fps=0.7 q=35.9 size=     256KiB time=00:00:03.93 bitrate= 533.3kbits/s speed=0.023x elapsed=0:02:50.73    \nframe=  120 fps=0.7 q=35.9 size=     256KiB time=00:00:03.93 bitrate= 533.3kbits/s speed=0.023x elapsed=0:02:51.24    \nframe=  121 fps=0.7 q=39.4 size=     512KiB time=00:00:03.96 bitrate=1057.5kbits/s speed=0.0231x elapsed=0:02:51.76    \nframe=  121 fps=0.7 q=39.4 size=     512KiB time=00:00:03.96 bitrate=1057.5kbits/s speed=0.023x elapsed=0:02:52.29    \nframe=  122 fps=0.7 q=40.8 size=     512KiB time=00:00:04.00 bitrate=1048.7kbits/s speed=0.0231x elapsed=0:02:52.82    \nframe=  122 fps=0.7 q=40.8 size=     512KiB time=00:00:04.00 bitrate=1048.7kbits/s speed=0.0231x elapsed=0:02:53.34    \nframe=  123 fps=0.7 q=41.5 size=     512KiB time=00:00:04.03 bitrate=1040.0kbits/s speed=0.0232x elapsed=0:02:53.85    \nframe=  124 fps=0.7 q=36.4 size=     512KiB time=00:00:04.06 bitrate=1031.5kbits/s speed=0.0233x elapsed=0:02:54.37    \nframe=  124 fps=0.7 q=36.4 size=     512KiB time=00:00:04.06 bitrate=1031.5kbits/s speed=0.0233x elapsed=0:02:54.89    \nframe=  124 fps=0.7 q=36.4 size=     512KiB time=00:00:04.06 bitrate=1031.5kbits/s speed=0.0232x elapsed=0:02:55.41    \nframe=  125 fps=0.7 q=39.6 size=     512KiB time=00:00:04.10 bitrate=1023.1kbits/s speed=0.0233x elapsed=0:02:55.94    \nframe=  125 fps=0.7 q=39.6 size=     512KiB time=00:00:04.10 bitrate=1023.1kbits/s speed=0.0232x elapsed=0:02:56.46    \nframe=  125 fps=0.7 q=39.6 size=     512KiB time=00:00:04.10 bitrate=1023.1kbits/s speed=0.0232x elapsed=0:02:56.98    \nframe=  125 fps=0.7 q=39.6 size=     512KiB time=00:00:04.10 bitrate=1023.1kbits/s speed=0.0231x elapsed=0:02:57.51    \nframe=  125 fps=0.7 q=39.6 size=     512KiB time=00:00:04.10 bitrate=1023.1kbits/s speed=0.023x elapsed=0:02:58.06    \nframe=  126 fps=0.7 q=41.4 size=     512KiB time=00:00:04.13 bitrate=1014.8kbits/s speed=0.0231x elapsed=0:02:58.59    \nframe=  126 fps=0.7 q=41.4 size=     512KiB time=00:00:04.13 bitrate=1014.8kbits/s speed=0.0231x elapsed=0:02:59.13    \nframe=  126 fps=0.7 q=41.4 size=     512KiB time=00:00:04.13 bitrate=1014.8kbits/s speed=0.023x elapsed=0:02:59.74    \nframe=  126 fps=0.7 q=41.4 size=     512KiB time=00:00:04.13 bitrate=1014.8kbits/s speed=0.0229x elapsed=0:03:00.34    \nframe=  126 fps=0.7 q=41.4 size=     512KiB time=00:00:04.13 bitrate=1014.8kbits/s speed=0.0228x elapsed=0:03:00.90    \nframe=  126 fps=0.7 q=41.4 size=     512KiB time=00:00:04.13 bitrate=1014.8kbits/s speed=0.0228x elapsed=0:03:01.47    \nframe=  126 fps=0.7 q=41.4 size=     512KiB time=00:00:04.13 bitrate=1014.8kbits/s speed=0.0227x elapsed=0:03:02.02    \nframe=  127 fps=0.7 q=41.9 size=     512KiB time=00:00:04.16 bitrate=1006.7kbits/s speed=0.0228x elapsed=0:03:02.54    \nframe=  127 fps=0.7 q=41.9 size=     512KiB time=00:00:04.16 bitrate=1006.7kbits/s speed=0.0228x elapsed=0:03:03.07    \nframe=  128 fps=0.7 q=36.6 size=     512KiB time=00:00:04.20 bitrate= 998.7kbits/s speed=0.0229x elapsed=0:03:03.59    \nframe=  128 fps=0.7 q=36.6 size=     512KiB time=00:00:04.20 bitrate= 998.7kbits/s speed=0.0228x elapsed=0:03:04.14    \nframe=  128 fps=0.7 q=36.6 size=     512KiB time=00:00:04.20 bitrate= 998.7kbits/s speed=0.0227x elapsed=0:03:04.65    \nframe=  129 fps=0.7 q=39.7 size=     512KiB time=00:00:04.23 bitrate= 990.9kbits/s speed=0.0229x elapsed=0:03:05.18    \nframe=  129 fps=0.7 q=39.7 size=     512KiB time=00:00:04.23 bitrate= 990.9kbits/s speed=0.0228x elapsed=0:03:05.70    \nframe=  129 fps=0.7 q=39.7 size=     512KiB time=00:00:04.23 bitrate= 990.9kbits/s speed=0.0227x elapsed=0:03:06.21    \nframe=  130 fps=0.7 q=41.7 size=     512KiB time=00:00:04.26 bitrate= 983.1kbits/s speed=0.0228x elapsed=0:03:06.73    \nframe=  130 fps=0.7 q=41.7 size=     512KiB time=00:00:04.26 bitrate= 983.1kbits/s speed=0.0228x elapsed=0:03:07.25    \nframe=  131 fps=0.7 q=42.0 size=     512KiB time=00:00:04.30 bitrate= 975.5kbits/s speed=0.0229x elapsed=0:03:07.76    \nframe=  132 fps=0.7 q=36.5 size=     512KiB time=00:00:04.33 bitrate= 968.0kbits/s speed=0.023x elapsed=0:03:08.28    \nframe=  132 fps=0.7 q=36.5 size=     512KiB time=00:00:04.33 bitrate= 968.0kbits/s speed=0.0229x elapsed=0:03:08.81    \nframe=  132 fps=0.7 q=36.5 size=     512KiB time=00:00:04.33 bitrate= 968.0kbits/s speed=0.0229x elapsed=0:03:09.35    \nframe=  133 fps=0.7 q=39.7 size=     512KiB time=00:00:04.36 bitrate= 960.6kbits/s speed=0.023x elapsed=0:03:09.87    \nframe=  133 fps=0.7 q=39.7 size=     512KiB time=00:00:04.36 bitrate= 960.6kbits/s speed=0.0229x elapsed=0:03:10.41    \nframe=  133 fps=0.7 q=39.7 size=     512KiB time=00:00:04.36 bitrate= 960.6kbits/s speed=0.0229x elapsed=0:03:10.94    \nframe=  134 fps=0.7 q=41.7 size=     512KiB time=00:00:04.40 bitrate= 953.3kbits/s speed=0.023x elapsed=0:03:11.46    \nframe=  134 fps=0.7 q=41.7 size=     512KiB time=00:00:04.40 bitrate= 953.3kbits/s speed=0.0229x elapsed=0:03:11.97    \nframe=  135 fps=0.7 q=42.3 size=     512KiB time=00:00:04.43 bitrate= 946.2kbits/s speed=0.023x elapsed=0:03:12.49    \nframe=  136 fps=0.7 q=42.0 size=     512KiB time=00:00:04.46 bitrate= 939.1kbits/s speed=0.0231x elapsed=0:03:13.04    \nframe=  136 fps=0.7 q=42.0 size=     512KiB time=00:00:04.46 bitrate= 939.1kbits/s speed=0.0231x elapsed=0:03:13.58    \nframe=  136 fps=0.7 q=42.0 size=     512KiB time=00:00:04.46 bitrate= 939.1kbits/s speed=0.023x elapsed=0:03:14.11    \nframe=  137 fps=0.7 q=36.9 size=     512KiB time=00:00:04.50 bitrate= 932.1kbits/s speed=0.0231x elapsed=0:03:14.63    \nframe=  137 fps=0.7 q=36.9 size=     512KiB time=00:00:04.50 bitrate= 932.1kbits/s speed=0.0231x elapsed=0:03:15.18    \nframe=  137 fps=0.7 q=36.9 size=     512KiB time=00:00:04.50 bitrate= 932.1kbits/s speed=0.023x elapsed=0:03:15.71    \nframe=  138 fps=0.7 q=41.0 size=     512KiB time=00:00:04.53 bitrate= 925.3kbits/s speed=0.0231x elapsed=0:03:16.23    \nframe=  139 fps=0.7 q=41.6 size=     512KiB time=00:00:04.56 bitrate= 918.5kbits/s speed=0.0232x elapsed=0:03:16.76    \nframe=  139 fps=0.7 q=41.6 size=     512KiB time=00:00:04.56 bitrate= 918.5kbits/s speed=0.0231x elapsed=0:03:17.29    \nframe=  140 fps=0.7 q=42.4 size=     512KiB time=00:00:04.60 bitrate= 911.9kbits/s speed=0.0233x elapsed=0:03:17.81    \nframe=  140 fps=0.7 q=42.4 size=     512KiB time=00:00:04.60 bitrate= 911.9kbits/s speed=0.0232x elapsed=0:03:18.35    \nframe=  141 fps=0.7 q=42.3 size=     512KiB time=00:00:04.63 bitrate= 905.3kbits/s speed=0.0233x elapsed=0:03:18.87    \nframe=  141 fps=0.7 q=42.3 size=     512KiB time=00:00:04.63 bitrate= 905.3kbits/s speed=0.0232x elapsed=0:03:19.40    \nframe=  141 fps=0.7 q=42.3 size=     512KiB time=00:00:04.63 bitrate= 905.3kbits/s speed=0.0232x elapsed=0:03:19.92    \nframe=  141 fps=0.7 q=42.3 size=     512KiB time=00:00:04.63 bitrate= 905.3kbits/s speed=0.0231x elapsed=0:03:20.44    \nframe=  142 fps=0.7 q=36.1 size=     512KiB time=00:00:04.66 bitrate= 898.9kbits/s speed=0.0232x elapsed=0:03:20.97    \nframe=  142 fps=0.7 q=36.1 size=     512KiB time=00:00:04.66 bitrate= 898.9kbits/s speed=0.0232x elapsed=0:03:21.49    \nframe=  142 fps=0.7 q=36.1 size=     512KiB time=00:00:04.66 bitrate= 898.9kbits/s speed=0.0231x elapsed=0:03:22.01    \nframe=  143 fps=0.7 q=39.6 size=     512KiB time=00:00:04.70 bitrate= 892.5kbits/s speed=0.0232x elapsed=0:03:22.53    \nframe=  143 fps=0.7 q=39.6 size=     512KiB time=00:00:04.70 bitrate= 892.5kbits/s speed=0.0231x elapsed=0:03:23.03    \nframe=  143 fps=0.7 q=39.6 size=     512KiB time=00:00:04.70 bitrate= 892.5kbits/s speed=0.0231x elapsed=0:03:23.55    \nframe=  144 fps=0.7 q=41.7 size=     512KiB time=00:00:04.73 bitrate= 886.2kbits/s speed=0.0232x elapsed=0:03:24.07    \nframe=  145 fps=0.7 q=41.4 size=     512KiB time=00:00:04.76 bitrate= 880.0kbits/s speed=0.0233x elapsed=0:03:24.59    \nframe=  145 fps=0.7 q=41.4 size=     512KiB time=00:00:04.76 bitrate= 880.0kbits/s speed=0.0232x elapsed=0:03:25.17    \nframe=  145 fps=0.7 q=41.4 size=     512KiB time=00:00:04.76 bitrate= 880.0kbits/s speed=0.0232x elapsed=0:03:25.68    \nframe=  146 fps=0.7 q=35.8 size=     512KiB time=00:00:04.80 bitrate= 873.9kbits/s speed=0.0233x elapsed=0:03:26.19    \nframe=  146 fps=0.7 q=35.8 size=     512KiB time=00:00:04.80 bitrate= 873.9kbits/s speed=0.0232x elapsed=0:03:26.71    \nframe=  147 fps=0.7 q=38.2 size=     512KiB time=00:00:04.83 bitrate= 867.9kbits/s speed=0.0233x elapsed=0:03:27.23    \nframe=  147 fps=0.7 q=38.2 size=     512KiB time=00:00:04.83 bitrate= 867.9kbits/s speed=0.0233x elapsed=0:03:27.74    \nframe=  148 fps=0.7 q=41.6 size=     512KiB time=00:00:04.86 bitrate= 861.9kbits/s speed=0.0234x elapsed=0:03:28.26    \n[mp4 @ 000002a8dea9c580] Starting second pass: moving the moov atom to the beginning of the file\n[out#0/mp4 @ 000002a8dea9ad00] video:637KiB audio:0KiB subtitle:0KiB other streams:0KiB global headers:2KiB muxing overhead: 0.789183%\nframe=  150 fps=0.7 q=40.3 Lsize=     642KiB time=00:00:04.93 bitrate=1065.3kbits/s speed=0.0236x elapsed=0:03:28.73    \nx265 [info]: frame I:      1, Avg QP:37.06  kb/s: 1128.24 \nx265 [info]: frame P:     32, Avg QP:32.12  kb/s: 2336.28 \nx265 [info]: frame B:    117, Avg QP:35.80  kb/s: 687.20  \nx265 [info]: Weighted P-Frames: Y:9.4% UV:3.1%\n\nencoded 150 frames in 208.44s (0.72 fps), 1041.94 kb/s, Avg QP:35.02\n",
  "seconds": 209.21154522895813,
  "probe_out": {}
}